<svg width="48" height="48" viewBox="0 0 48 48" fill="none" xmlns="http://www.w3.org/2000/svg">
<circle cx="24" cy="24" r="24" fill="#7C5CFC"/>
<path d="M18.0281 32.72H29.9081V30.32H21.7721L26.0921 25.712C27.2761 24.432 28.1481 23.336 28.7081 22.424C29.2841 21.496 29.5721 20.544 29.5721 19.568C29.5721 18.576 29.3321 17.704 28.8521 16.952C28.3881 16.2 27.7321 15.616 26.8841 15.2C26.0361 14.768 25.0441 14.552 23.9081 14.552C22.9321 14.552 22.0281 14.744 21.1961 15.128C20.3641 15.512 19.6601 16.056 19.0841 16.76C18.5081 17.448 18.1161 18.264 17.9081 19.208L20.4041 19.928C20.6441 19 21.0761 18.296 21.7001 17.816C22.3241 17.32 23.0681 17.072 23.9321 17.072C24.7801 17.072 25.4601 17.312 25.9721 17.792C26.5001 18.272 26.7641 18.936 26.7641 19.784C26.7641 20.312 26.6441 20.816 26.4041 21.296C26.1641 21.776 25.7641 22.336 25.2041 22.976C24.6441 23.6 23.8841 24.424 22.9241 25.448L18.0281 30.68V32.72Z" fill="white"/>
</svg>
