<svg width="48" height="48" viewBox="0 0 48 48" fill="none" xmlns="http://www.w3.org/2000/svg">
<circle cx="24" cy="24" r="24" fill="#7C5CFC"/>
<path d="M23.696 33.008C22.736 33.008 21.832 32.832 20.984 32.48C20.152 32.128 19.432 31.632 18.824 30.992C18.232 30.352 17.808 29.6 17.552 28.736L19.952 27.824C20.272 28.672 20.76 29.328 21.416 29.792C22.072 30.256 22.832 30.488 23.696 30.488C24.4 30.488 25.008 30.352 25.52 30.08C26.048 29.808 26.456 29.424 26.744 28.928C27.048 28.432 27.2 27.832 27.2 27.128C27.2 26.44 27.048 25.848 26.744 25.352C26.456 24.856 26.048 24.48 25.52 24.224C25.008 23.968 24.4 23.84 23.696 23.84C23.408 23.84 23.112 23.864 22.808 23.912C22.52 23.96 22.264 24.024 22.04 24.104L21.416 22.784L26.12 17.24H18.512V14.84H29.288V17.12L24.68 22.64L24.608 21.728C25.68 21.744 26.624 21.984 27.44 22.448C28.256 22.896 28.888 23.52 29.336 24.32C29.8 25.104 30.032 26.016 30.032 27.056C30.032 28.176 29.76 29.192 29.216 30.104C28.672 31 27.92 31.712 26.96 32.24C26.016 32.752 24.928 33.008 23.696 33.008Z" fill="white"/>
</svg>
