<svg width="48" height="48" viewBox="0 0 48 48" fill="none" xmlns="http://www.w3.org/2000/svg">
<circle cx="24" cy="24" r="24" fill="white"/>
<path d="M23.7931 34.0082C22.8491 34.0082 21.9611 33.8402 21.1291 33.5042C20.2971 33.1522 19.5771 32.6642 18.9691 32.0402C18.3611 31.4162 17.9291 30.6642 17.6731 29.7842L20.0491 28.8722C20.3531 29.7202 20.8491 30.3682 21.5371 30.8162C22.2251 31.2642 22.9771 31.4882 23.7931 31.4882C24.4651 31.4882 25.0571 31.3362 25.5691 31.0322C26.0811 30.7282 26.4811 30.3122 26.7691 29.7842C27.0731 29.2562 27.2251 28.6562 27.2251 27.9842C27.2251 27.2962 27.0731 26.6962 26.7691 26.1842C26.4811 25.6562 26.0811 25.2482 25.5691 24.9602C25.0571 24.6562 24.4651 24.5042 23.7931 24.5042C23.1211 24.5042 22.5051 24.6562 21.9451 24.9602C21.3851 25.2642 20.9771 25.6722 20.7211 26.1842L18.4411 25.6802L19.8331 15.8402H29.3611V18.2402H20.9371L22.0171 17.0642L20.9851 24.6002L20.0971 24.0002C20.5771 23.3282 21.1611 22.8402 21.8491 22.5362C22.5371 22.2322 23.3211 22.0802 24.2011 22.0802C25.3691 22.0802 26.3851 22.3442 27.2491 22.8722C28.1291 23.3842 28.8091 24.0882 29.2891 24.9842C29.7851 25.8642 30.0331 26.8642 30.0331 27.9842C30.0331 29.1202 29.7611 30.1442 29.2171 31.0562C28.6731 31.9682 27.9291 32.6882 26.9851 33.2162C26.0571 33.7442 24.9931 34.0082 23.7931 34.0082Z" fill="#1A202C"/>
</svg>
