<svg width="16" height="18" viewBox="0 0 16 18" fill="none" xmlns="http://www.w3.org/2000/svg">
<path d="M4.75 0H4.81875C5.81562 0 6.74062 0.594492 7.24687 1.5627L8 3.00445L8.75313 1.5627C9.25938 0.594492 10.1844 0 11.1812 0H11.25C12.7687 0 14 1.38516 14 3.09375C14 3.6 13.8906 4.04648 13.7 4.5H15C15.5531 4.5 16 5.00273 16 5.625V7.875C16 8.49727 15.5531 9 15 9H1C0.447812 9 0 8.49727 0 7.875V5.625C0 5.00273 0.447812 4.5 1 4.5H2.3C2.10812 4.04648 2 3.6 2 3.09375C2 1.38516 3.23125 0 4.75 0ZM5.95312 2.41805C5.71563 1.96559 5.28437 1.6875 4.81875 1.6875H4.75C4.05937 1.6875 3.5 2.31715 3.5 3.09375C3.5 3.8707 4.05937 4.5 4.75 4.5H7.04063L5.95312 2.41805ZM11.25 1.6875H11.1812C10.7156 1.6875 10.2844 1.96559 10.0469 2.41805L8.95938 4.5H11.25C11.9406 4.5 12.5 3.8707 12.5 3.09375C12.5 2.31715 11.9406 1.6875 11.25 1.6875ZM1 10.125H7V18H2.5C1.67156 18 1 17.2441 1 16.3125V10.125ZM9 18V10.125H15V16.3125C15 17.2441 14.3281 18 13.5 18H9Z" fill="white"/>
</svg>
