<svg width="18" height="18" viewBox="0 0 18 18" fill="none" xmlns="http://www.w3.org/2000/svg">
<path d="M9 0C13.9711 0 18 4.02891 18 9C18 13.9711 13.9711 18 9 18C7.09102 18 5.31562 17.4023 3.85664 16.3863C3.34687 15.9996 3.22172 15.3281 3.57891 14.8184C3.93398 14.3086 4.63359 14.1855 5.14336 14.5406C6.23672 15.3035 7.56563 15.75 9 15.75C12.7266 15.75 15.75 12.7266 15.75 9C15.75 5.2418 12.7266 2.25 9 2.25C7.10508 2.25 5.44922 3.00445 4.22578 4.22578L5.30859 5.30859C5.83945 5.83945 5.46328 6.75 4.71445 6.75H0.84375C0.37793 6.75 0 6.37383 0 5.90625V2.03695C0 1.28531 0.908789 0.908789 1.44035 1.44035L2.63602 2.63602C4.26445 1.00863 6.51445 0 8.96836 0H9ZM9 4.5C9.46758 4.5 9.84375 4.87617 9.84375 5.34375V8.65195L12.0973 10.9336C12.4559 11.2641 12.4559 11.7984 12.0973 12.0973C11.7984 12.4559 11.2641 12.4559 10.9336 12.0973L8.40234 9.56602C8.24414 9.43945 8.15625 9.225 8.15625 9V5.34375C8.15625 4.87617 8.53242 4.5 9 4.5Z" fill="white"/>
</svg>
