<svg width="16" height="18" viewBox="0 0 16 18" fill="none" xmlns="http://www.w3.org/2000/svg">
<path d="M14 0C14.5531 0 15 0.575759 15 1.28571C15 1.99567 14.5531 2.57143 14 2.57143H2.5C2.22375 2.57143 2 2.86071 2 3.21429C2 3.56786 2.22375 3.85714 2.5 3.85714H14C15.1031 3.85714 16 5.01027 16 6.42857V15.4286C16 16.8469 15.1031 18 14 18H2C0.895313 18 0 16.8469 0 15.4286V2.57143C0 1.15112 0.895313 0 2 0H14ZM13 12.2143C13.5531 12.2143 14 11.6397 14 10.9286C14 10.2174 13.5531 9.64286 13 9.64286C12.4469 9.64286 12 10.2174 12 10.9286C12 11.6397 12.4469 12.2143 13 12.2143Z" fill="white"/>
</svg>
